<?xml version="1.0" encoding="utf-8"?>
<!-- Generator: Adobe Illustrator 22.0.1, SVG Export Plug-In . SVG Version: 6.00 Build 0)  -->
<svg version="1.1" xmlns="http://www.w3.org/2000/svg" xmlns:xlink="http://www.w3.org/1999/xlink" x="0px" y="0px"
	 viewBox="0 0 2500 1660" style="enable-background:new 0 0 2500 1660;" xml:space="preserve">
<metadata><?xpacket begin="﻿" id="W5M0MpCehiHzreSzNTczkc9d"?>
<x:xmpmeta xmlns:x="adobe:ns:meta/" x:xmptk="Adobe XMP Core 5.6-c143 79.161210, 2017/08/11-10:28:36        ">
   <rdf:RDF xmlns:rdf="http://www.w3.org/1999/02/22-rdf-syntax-ns#">
      <rdf:Description rdf:about=""/>
   </rdf:RDF>
</x:xmpmeta>
                                                                                                    
                                                                                                    
                                                                                                    
                                                                                                    
                                                                                                    
                                                                                                    
                                                                                                    
                                                                                                    
                                                                                                    
                                                                                                    
                                                                                                    
                                                                                                    
                                                                                                    
                                                                                                    
                                                                                                    
                                                                                                    
                                                                                                    
                                                                                                    
                                                                                                    
                                                                                                    
                           
<?xpacket end="w"?></metadata>
<style type="text/css">
	.st0{fill:#EF1B1B;}
	.st1{fill:#FFFFFF;}
</style>
<g id="Layer_1_copy_6">
	<path class="st0" d="M0,0v1660h2500V0H0z M1300,780h-25v150c0,13.8,11.2,25,25,25h-100c13.8,0,25-11.2,25-25V780h-25
		c-32.7,0-60.4-20.9-70.7-50c-2.8-7.8-4.3-16.2-4.3-25c0,13.8,33.6,25,75,25h100c32.7,0,60.4,20.9,70.7,50c2.8,7.8,4.3,16.2,4.3,25
		C1375,791.2,1341.4,780,1300,780z"/>
</g>
<g id="Layer_1_copy_4">
	<path d="M1355.9,855c11.9,13.3,19.1,30.8,19.1,50v50h-50v-50c0-13.8-11.2-25-25-25h-25v-50h25c13.8,0,25-11.2,25-25s-11.2-25-25-25
		c41.4,0,75,11.2,75,25C1375,824.2,1367.8,841.7,1355.9,855z"/>
</g>
<g id="Layer_1_copy_5">
	<path class="st1" d="M1375,805c0-13.8-33.6-25-75-25h-25v150c0,13.8,11.2,25,25,25h-100c13.8,0,25-11.2,25-25V780h-25
		c-32.7,0-60.4-20.9-70.7-50c-2.8-7.8-4.3-16.2-4.3-25c0,13.8,33.6,25,75,25h100c32.7,0,60.4,20.9,70.7,50
		C1373.5,787.8,1375,796.2,1375,805z"/>
</g>
</svg>
