<?xml version="1.0" encoding="utf-8"?>
<!-- Generator: Adobe Illustrator 22.0.1, SVG Export Plug-In . SVG Version: 6.00 Build 0)  -->
<svg version="1.1" xmlns="http://www.w3.org/2000/svg" xmlns:xlink="http://www.w3.org/1999/xlink" x="0px" y="0px"
	 viewBox="0 0 800 1023" style="enable-background:new 0 0 800 1023;" xml:space="preserve">
<metadata><?xpacket begin="﻿" id="W5M0MpCehiHzreSzNTczkc9d"?>
<x:xmpmeta xmlns:x="adobe:ns:meta/" x:xmptk="Adobe XMP Core 5.6-c143 79.161210, 2017/08/11-10:28:36        ">
   <rdf:RDF xmlns:rdf="http://www.w3.org/1999/02/22-rdf-syntax-ns#">
      <rdf:Description rdf:about=""/>
   </rdf:RDF>
</x:xmpmeta>
                                                                                                    
                                                                                                    
                                                                                                    
                                                                                                    
                                                                                                    
                                                                                                    
                                                                                                    
                                                                                                    
                                                                                                    
                                                                                                    
                                                                                                    
                                                                                                    
                                                                                                    
                                                                                                    
                                                                                                    
                                                                                                    
                                                                                                    
                                                                                                    
                                                                                                    
                                                                                                    
                           
<?xpacket end="w"?></metadata>
<style type="text/css">
	.st0{fill:#EF1B1B;}
</style>
<g id="Layer_1_copy_4">
	<path d="M738.8,480c38,42.5,61.2,98.5,61.2,160v160H640V640c0-44.2-35.8-80-80-80h-80V400h80c44.2,0,80-35.8,80-80s-35.8-80-80-80
		c132.5,0,240,35.8,240,80C800,381.5,776.9,437.5,738.8,480z"/>
</g>
<g id="Layer_1_copy_5">
	<path class="st0" d="M800.1,320c0-44.2-107.5-80-240-80h-80v480c0,44.2,35.8,80,80,80h-320c44.2,0,80-35.8,80-80V240h-80
		C135.6,240,46.7,173.2,13.7,80C4.9,55,0.1,28.1,0.1,0c0,44.2,107.5,80,240,80h320c104.5,0,193.4,66.8,226.3,160
		C795.2,265,800.1,291.9,800.1,320z"/>
</g>
<g id="Layer_4">
	<g id="Layer_4_1_">
		<g>
			<path d="M0,860h58.1v15.3H38.6v46.6H19.5v-46.6H0V860z"/>
			<path d="M99,911.7H77.3l-3,10.2H54.8L78.1,860H99l23.3,61.9h-20L99,911.7z M95,898.3l-6.8-22.2l-6.8,22.2H95z"/>
			<path d="M128.3,860h17.9l23.3,34.2V860h18v61.9h-18l-23.2-34v34h-18L128.3,860L128.3,860z"/>
			<path d="M200.9,860h19.2v61.9h-19.2V860z"/>
			<path d="M233.6,860h25.1l9.7,37.7L278,860h25.1v61.9h-15.7v-47.2l-12.1,47.2h-14.2l-12-47.2v47.2h-15.7V860H233.6z"/>
			<path d="M353.5,911.7h-21.7l-3,10.2h-19.5l23.3-61.9h20.9l23.3,61.9h-20L353.5,911.7z M349.5,898.3l-6.8-22.2l-6.8,22.2H349.5z"
				/>
			<path d="M411.7,921.9V860h31.9c5.9,0,10.4,0.5,13.6,1.5c3.1,1,5.6,2.9,7.6,5.6c1.9,2.7,2.9,6.1,2.9,10c0,3.4-0.7,6.4-2.2,8.9
				s-3.5,4.5-6,6.1c-1.6,1-3.9,1.8-6.7,2.4c2.3,0.8,3.9,1.5,5,2.3c0.7,0.5,1.7,1.6,3.1,3.3c1.3,1.7,2.2,2.9,2.7,3.8l9.3,17.9h-22
				l-10.2-18.9c-1.3-2.4-2.4-4-3.5-4.8c-1.4-1-2.9-1.4-4.7-1.4h-1.7v25.1L411.7,921.9L411.7,921.9z M430.9,885.1h8.1
				c0.9,0,2.6-0.3,5.1-0.8c1.3-0.3,2.3-0.9,3.1-1.9c0.8-1,1.2-2.2,1.2-3.6c0-2-0.6-3.5-1.9-4.6s-3.6-1.6-7.1-1.6H431L430.9,885.1
				L430.9,885.1z"/>
			<path d="M516.7,911.7H495l-3,10.2h-19.5l23.3-61.9h20.9l23.3,61.9h-20L516.7,911.7z M512.7,898.3l-6.8-22.2l-6.8,22.2H512.7z"/>
			<path d="M546,860h17.9l23.3,34.2V860h18v61.9h-18l-23.2-34v34h-18L546,860L546,860z"/>
			<path d="M643.7,860h19.2v33.6c0,7.1-0.6,12.4-1.9,16.1c-1.3,3.7-3.8,6.8-7.6,9.4c-3.8,2.6-8.6,3.8-14.5,3.8
				c-6.2,0-11.1-0.8-14.5-2.5c-3.4-1.7-6.1-4.2-8-7.4c-1.9-3.3-3-7.3-3.3-12.1l18.3-2.5c0,2.7,0.3,4.8,0.7,6.1
				c0.4,1.3,1.2,2.4,2.3,3.2c0.7,0.5,1.8,0.8,3.1,0.8c2.1,0,3.7-0.8,4.7-2.4c1-1.6,1.5-4.3,1.5-8L643.7,860L643.7,860z"/>
			<path d="M711.4,911.7h-21.7l-3,10.2h-19.5l23.3-61.9h20.9l23.3,61.9h-20L711.4,911.7z M707.4,898.3l-6.8-22.2l-6.8,22.2H707.4z"
				/>
			<path d="M740.7,860h17.9l23.3,34.2V860h18v61.9h-18l-23.2-34v34h-18V860z"/>
		</g>
		<g>
			<path d="M0,1022.1v-38.5h25.9v4.5H5v11.9h18v4.5H5v17.5L0,1022.1L0,1022.1z"/>
			<path d="M57.8,983.7h5.1v22.2c0,3.9-0.4,6.9-1.3,9.2c-0.9,2.3-2.5,4.1-4.7,5.5c-2.3,1.4-5.3,2.1-9,2.1c-3.6,0-6.6-0.6-8.8-1.9
				c-2.3-1.2-3.9-3-4.9-5.4c-1-2.4-1.5-5.6-1.5-9.6v-22.2h5.1v22.2c0,3.3,0.3,5.8,0.9,7.4c0.6,1.6,1.7,2.8,3.2,3.7
				c1.5,0.9,3.4,1.3,5.5,1.3c3.7,0,6.4-0.8,8-2.5c1.6-1.7,2.4-5,2.4-9.8L57.8,983.7L57.8,983.7z"/>
			<path d="M71.1,1022.1v-38.5h5.1v33.9h18.9v4.5L71.1,1022.1L71.1,1022.1z"/>
			<path d="M101,1022.1v-38.5h5.1v33.9H125v4.5L101,1022.1L101,1022.1z"/>
			<path d="M128.7,1010.6v-4.7h14.5v4.7H128.7z"/>
			<path d="M147.3,1009.8l4.8-0.4c0.2,1.9,0.8,3.5,1.6,4.7c0.8,1.2,2.1,2.2,3.9,3c1.7,0.8,3.7,1.1,5.9,1.1c1.9,0,3.7-0.3,5.1-0.9
				c1.5-0.6,2.6-1.4,3.3-2.4c0.7-1,1.1-2.1,1.1-3.3c0-1.2-0.4-2.3-1-3.2c-0.7-0.9-1.9-1.7-3.5-2.3c-1-0.4-3.3-1-6.8-1.9
				c-3.5-0.8-6-1.6-7.4-2.4c-1.8-1-3.2-2.2-4.1-3.6c-0.9-1.4-1.4-3-1.4-4.8c0-1.9,0.6-3.8,1.7-5.4c1.1-1.7,2.7-3,4.8-3.8
				c2.1-0.9,4.5-1.3,7.1-1.3c2.8,0,5.4,0.5,7.5,1.4c2.2,0.9,3.9,2.3,5,4.1c1.2,1.8,1.8,3.8,1.9,6.1l-4.9,0.4
				c-0.3-2.4-1.2-4.3-2.7-5.5c-1.5-1.2-3.7-1.9-6.7-1.9c-3.1,0-5.3,0.6-6.7,1.7c-1.4,1.1-2.1,2.5-2.1,4.1c0,1.4,0.5,2.5,1.5,3.4
				c1,0.9,3.5,1.8,7.7,2.7c4.1,0.9,7,1.8,8.5,2.5c2.2,1,3.9,2.3,5,3.9s1.6,3.4,1.6,5.5c0,2-0.6,4-1.8,5.8c-1.2,1.8-2.9,3.2-5.1,4.2
				s-4.7,1.5-7.4,1.5c-3.5,0-6.4-0.5-8.7-1.5c-2.4-1-4.2-2.5-5.5-4.6C148.1,1014.7,147.3,1012.4,147.3,1009.8z"/>
			<path d="M194.6,1022.1v-33.9H182v-4.5h30.5v4.5h-12.7v33.9H194.6z"/>
			<path d="M209.5,1022.1l14.8-38.5h5.5l15.7,38.5h-5.8l-4.5-11.6h-16.1l-4.2,11.6H209.5z M220.5,1006.3h13l-4-10.7
				c-1.2-3.2-2.1-5.9-2.7-8c-0.5,2.5-1.2,4.9-2.1,7.3L220.5,1006.3z"/>
			<path d="M277,1008.7l5.1,1.3c-1.1,4.2-3,7.4-5.8,9.6c-2.8,2.2-6.2,3.3-10.2,3.3c-4.1,0-7.5-0.8-10.1-2.5
				c-2.6-1.7-4.6-4.1-5.9-7.3c-1.4-3.2-2-6.6-2-10.3c0-4,0.8-7.5,2.3-10.5s3.7-5.2,6.5-6.8c2.8-1.6,5.9-2.3,9.3-2.3
				c3.8,0,7.1,1,9.7,2.9c2.6,2,4.5,4.7,5.5,8.3l-5,1.2c-0.9-2.8-2.2-4.8-3.9-6.1c-1.7-1.3-3.8-1.9-6.4-1.9c-3,0-5.4,0.7-7.4,2.1
				c-2,1.4-3.4,3.3-4.2,5.7c-0.8,2.4-1.2,4.8-1.2,7.4c0,3.3,0.5,6.1,1.4,8.6c1,2.4,2.4,4.3,4.4,5.5c2,1.2,4.2,1.8,6.5,1.8
				c2.9,0,5.3-0.8,7.2-2.5C274.9,1014.3,276.3,1011.9,277,1008.7z"/>
			<path d="M288.1,1022.1v-38.5h5.1v19.1l19.1-19.1h6.9l-16.1,15.6l16.8,22.9h-6.7l-13.7-19.5l-6.3,6.1v13.3L288.1,1022.1
				L288.1,1022.1z"/>
			<path d="M345.8,1022.1l-10.2-38.5h5.2l5.9,25.2c0.6,2.6,1.2,5.3,1.6,7.9c1-4.1,1.6-6.5,1.7-7.1l7.3-26h6.1l5.5,19.5
				c1.4,4.8,2.4,9.4,3,13.6c0.5-2.4,1.1-5.2,1.9-8.4l6-24.7h5.1l-10.5,38.5h-4.9l-8.1-29.3c-0.7-2.4-1.1-4-1.2-4.5
				c-0.4,1.8-0.8,3.3-1.1,4.5l-8.2,29.3H345.8z"/>
			<path d="M389.9,1022.1v-38.5h27.8v4.5H395v11.8h21.3v4.5H395v13.1h23.6v4.5L389.9,1022.1L389.9,1022.1z"/>
			<path d="M425.3,1022.1v-38.5h14.4c2.9,0,5.3,0.4,7.1,1.2c1.8,0.8,3.2,2,4.2,3.6s1.5,3.3,1.5,5.1c0,1.6-0.4,3.2-1.3,4.6
				c-0.9,1.5-2.2,2.6-4,3.5c2.3,0.7,4.1,1.8,5.4,3.5c1.2,1.6,1.9,3.6,1.9,5.8c0,1.8-0.4,3.5-1.1,5c-0.8,1.5-1.7,2.7-2.8,3.6
				c-1.1,0.8-2.5,1.5-4.2,1.9s-3.8,0.6-6.2,0.6h-14.9V1022.1z M430.4,999.8h8.3c2.3,0,3.9-0.1,4.9-0.4c1.3-0.4,2.3-1,2.9-1.9
				c0.7-0.9,1-2,1-3.4c0-1.3-0.3-2.4-0.9-3.4c-0.6-1-1.5-1.6-2.6-2c-1.1-0.4-3.1-0.5-5.8-0.5h-7.7v11.6H430.4z M430.4,1017.6h9.6
				c1.6,0,2.8-0.1,3.5-0.2c1.2-0.2,2.2-0.6,2.9-1c0.8-0.5,1.4-1.2,1.9-2.1s0.8-2,0.8-3.2c0-1.4-0.4-2.7-1.1-3.7
				c-0.7-1.1-1.8-1.8-3.1-2.2c-1.3-0.4-3.2-0.6-5.6-0.6h-8.9L430.4,1017.6L430.4,1017.6z"/>
			<path d="M476.3,1022.1v-38.5h13.2c3,0,5.3,0.2,6.8,0.6c2.2,0.5,4.1,1.4,5.6,2.8c2,1.7,3.5,3.9,4.6,6.6c1,2.7,1.5,5.7,1.5,9.1
				c0,2.9-0.3,5.5-1,7.8c-0.7,2.3-1.6,4.1-2.6,5.6c-1.1,1.5-2.2,2.6-3.5,3.5s-2.8,1.5-4.6,1.9c-1.8,0.4-3.9,0.7-6.2,0.7
				L476.3,1022.1L476.3,1022.1z M481.4,1017.6h8.2c2.5,0,4.5-0.2,6-0.7c1.4-0.5,2.6-1.1,3.4-2c1.2-1.2,2.1-2.8,2.8-4.9
				c0.7-2,1-4.5,1-7.4c0-4-0.7-7.1-2-9.3c-1.3-2.2-2.9-3.6-4.8-4.3c-1.4-0.5-3.6-0.8-6.6-0.8h-8.1L481.4,1017.6L481.4,1017.6z"/>
			<path d="M515.2,1022.1v-38.5H543v4.5h-22.7v11.8h21.3v4.5h-21.3v13.1h23.6v4.5L515.2,1022.1L515.2,1022.1z"/>
			<path d="M561.9,1022.1L547,983.6h5.5l10,27.9c0.8,2.2,1.5,4.3,2,6.3c0.6-2.1,1.3-4.2,2.1-6.3l10.4-27.9h5.2l-15.1,38.5H561.9z"/>
			<path d="M586.9,1022.1v-38.5h27.8v4.5h-22.8v11.8h21.3v4.5h-21.3v13.1h23.6v4.5L586.9,1022.1L586.9,1022.1z"/>
			<path d="M622.4,1022.1v-38.5h5.1v33.9h18.9v4.5L622.4,1022.1L622.4,1022.1z"/>
			<path d="M650.9,1003.4c0-6.4,1.7-11.4,5.1-15c3.4-3.6,7.9-5.4,13.3-5.4c3.5,0,6.8,0.8,9.6,2.5c2.9,1.7,5,4.1,6.5,7.1
				s2.2,6.5,2.2,10.3c0,3.9-0.8,7.4-2.4,10.5c-1.6,3.1-3.8,5.4-6.7,7c-2.9,1.6-6,2.4-9.3,2.4c-3.6,0-6.9-0.9-9.7-2.6
				c-2.9-1.7-5-4.1-6.5-7.2C651.5,1009.9,650.9,1006.8,650.9,1003.4z M656.2,1003.5c0,4.6,1.2,8.3,3.7,11c2.5,2.7,5.6,4,9.4,4
				s7-1.3,9.5-4c2.5-2.7,3.7-6.5,3.7-11.5c0-3.1-0.5-5.9-1.6-8.2c-1.1-2.3-2.6-4.1-4.6-5.4c-2-1.3-4.3-1.9-6.9-1.9
				c-3.6,0-6.7,1.2-9.3,3.7C657.5,993.6,656.2,997.7,656.2,1003.5z"/>
			<path d="M694.3,1022.1v-38.5h14.5c2.6,0,4.5,0.1,5.9,0.4c1.9,0.3,3.5,0.9,4.7,1.8c1.3,0.9,2.3,2.1,3.1,3.7
				c0.8,1.6,1.2,3.3,1.2,5.2c0,3.3-1,6-3.1,8.3c-2.1,2.3-5.8,3.4-11.3,3.4h-9.9v15.6L694.3,1022.1L694.3,1022.1z M699.3,1002h9.9
				c3.3,0,5.6-0.6,7-1.8c1.4-1.2,2.1-2.9,2.1-5.2c0-1.6-0.4-3-1.2-4.1c-0.8-1.1-1.9-1.9-3.2-2.3c-0.9-0.2-2.4-0.3-4.7-0.3h-9.8v13.7
				H699.3z"/>
			<path d="M730.2,1022.1v-38.5H758v4.5h-22.7v11.8h21.3v4.5h-21.3v13.1h23.6v4.5L730.2,1022.1L730.2,1022.1z"/>
			<path d="M766,1022.1v-38.5h17.1c3.4,0,6,0.3,7.8,1c1.8,0.7,3.2,1.9,4.3,3.7c1.1,1.7,1.6,3.7,1.6,5.8c0,2.7-0.9,5-2.6,6.9
				c-1.8,1.9-4.5,3.1-8.2,3.6c1.3,0.6,2.4,1.3,3.1,1.9c1.5,1.4,2.9,3.1,4.2,5.1l6.7,10.5h-6.4l-5.1-8c-1.5-2.3-2.7-4.1-3.7-5.3
				c-1-1.2-1.8-2.1-2.6-2.6c-0.8-0.5-1.5-0.8-2.3-1c-0.6-0.1-1.5-0.2-2.8-0.2h-5.9v17.1H766z M771.1,1000.7H782
				c2.3,0,4.1-0.2,5.5-0.7c1.3-0.5,2.3-1.2,3-2.3c0.7-1.1,1-2.2,1-3.4c0-1.8-0.7-3.3-2-4.5c-1.3-1.2-3.4-1.8-6.3-1.8H771v12.7H771.1
				z"/>
		</g>
	</g>
</g>
</svg>
