<?xml version="1.0" encoding="utf-8"?>
<!-- Generator: Adobe Illustrator 22.0.1, SVG Export Plug-In . SVG Version: 6.00 Build 0)  -->
<svg version="1.1" xmlns="http://www.w3.org/2000/svg" xmlns:xlink="http://www.w3.org/1999/xlink" x="0px" y="0px"
	 viewBox="0 0 3360 1646" style="enable-background:new 0 0 3360 1646;" xml:space="preserve">
<metadata><?xpacket begin="﻿" id="W5M0MpCehiHzreSzNTczkc9d"?>
<x:xmpmeta xmlns:x="adobe:ns:meta/" x:xmptk="Adobe XMP Core 5.6-c143 79.161210, 2017/08/11-10:28:36        ">
   <rdf:RDF xmlns:rdf="http://www.w3.org/1999/02/22-rdf-syntax-ns#">
      <rdf:Description rdf:about=""/>
   </rdf:RDF>
</x:xmpmeta>
                                                                                                    
                                                                                                    
                                                                                                    
                                                                                                    
                                                                                                    
                                                                                                    
                                                                                                    
                                                                                                    
                                                                                                    
                                                                                                    
                                                                                                    
                                                                                                    
                                                                                                    
                                                                                                    
                                                                                                    
                                                                                                    
                                                                                                    
                                                                                                    
                                                                                                    
                                                                                                    
                           
<?xpacket end="w"?></metadata>
<style type="text/css">
	.st0{fill:#FFFFFF;}
	.st1{fill:#FF0000;}
</style>
<g id="Layer_1_copy_6">
	<path class="st0" d="M0,0v1646h3360V0H0z M1840,663h-80v480c0,44.2,35.8,80,80,80h-320c44.2,0,80-35.8,80-80V663h-80
		c-104.5,0-193.4-66.8-226.3-160c-8.8-25-13.7-51.9-13.7-80c0,44.2,107.5,80,240,80h320c104.5,0,193.4,66.8,226.3,160
		c8.8,25,13.7,51.9,13.7,80C2080,698.8,1972.5,663,1840,663z"/>
</g>
<g id="Layer_1_copy_4">
	<path d="M2018.8,791.6c38,42.5,61.2,98.5,61.2,160v160h-160v-160c0-44.2-35.8-80-80-80h-80v-160h80c44.2,0,80-35.8,80-80
		s-35.8-80-80-80c132.5,0,240,35.8,240,80C2080,693.1,2056.9,749.1,2018.8,791.6z"/>
</g>
<g id="Layer_1_copy_5">
	<path class="st1" d="M2080,631.6c0-44.2-107.5-80-240-80h-80v480c0,44.2,35.8,80,80,80h-320c44.2,0,80-35.8,80-80v-480h-80
		c-104.5,0-193.4-66.8-226.3-160c-8.8-25-13.7-51.9-13.7-80c0,44.2,107.5,80,240,80h320c104.5,0,193.4,66.8,226.3,160
		C2075.2,576.6,2080,603.5,2080,631.6z"/>
</g>
<g id="Layer_4">
	<g>
		<path d="M1280,1171.6h58.1v15.3h-19.5v46.6h-19.1v-46.6H1280V1171.6z"/>
		<path d="M1379,1223.3h-21.7l-3,10.2h-19.5l23.3-61.9h20.9l23.3,61.9h-20L1379,1223.3z M1375,1209.9l-6.8-22.2l-6.8,22.2H1375z"/>
		<path d="M1408.3,1171.6h17.9l23.3,34.2v-34.2h18v61.9h-18l-23.2-34v34h-18V1171.6z"/>
		<path d="M1480.9,1171.6h19.2v61.9h-19.2V1171.6z"/>
		<path d="M1513.6,1171.6h25.1l9.7,37.7l9.6-37.7h25.1v61.9h-15.7v-47.2l-12.1,47.2h-14.2l-12-47.2v47.2h-15.7V1171.6z"/>
		<path d="M1633.5,1223.3h-21.7l-3,10.2h-19.5l23.3-61.9h20.9l23.3,61.9h-20L1633.5,1223.3z M1629.5,1209.9l-6.8-22.2l-6.8,22.2
			H1629.5z"/>
		<path d="M1691.8,1233.5v-61.9h31.9c5.9,0,10.4,0.5,13.6,1.5c3.1,1,5.6,2.9,7.6,5.6c1.9,2.7,2.9,6.1,2.9,10c0,3.4-0.7,6.4-2.2,8.9
			s-3.5,4.5-6,6.1c-1.6,1-3.9,1.8-6.7,2.4c2.3,0.8,3.9,1.5,5,2.3c0.7,0.5,1.7,1.6,3.1,3.3c1.3,1.7,2.2,2.9,2.7,3.8l9.3,17.9H1731
			l-10.2-18.9c-1.3-2.4-2.4-4-3.5-4.8c-1.4-1-2.9-1.4-4.7-1.4h-1.7v25.1H1691.8z M1711,1196.7h8.1c0.9,0,2.6-0.3,5.1-0.8
			c1.3-0.3,2.3-0.9,3.1-1.9c0.8-1,1.2-2.2,1.2-3.6c0-2-0.6-3.5-1.9-4.6c-1.3-1.1-3.6-1.6-7.1-1.6h-8.4V1196.7z"/>
		<path d="M1796.8,1223.3h-21.7l-3,10.2h-19.5l23.3-61.9h20.9l23.3,61.9h-20L1796.8,1223.3z M1792.8,1209.9l-6.8-22.2l-6.8,22.2
			H1792.8z"/>
		<path d="M1826.1,1171.6h17.9l23.3,34.2v-34.2h18v61.9h-18l-23.2-34v34h-18V1171.6z"/>
		<path d="M1923.8,1171.6h19.2v33.6c0,7.1-0.6,12.4-1.9,16.1c-1.3,3.7-3.8,6.8-7.6,9.4c-3.8,2.6-8.6,3.8-14.5,3.8
			c-6.2,0-11.1-0.8-14.5-2.5c-3.4-1.7-6.1-4.2-8-7.4c-1.9-3.3-3-7.3-3.3-12.1l18.3-2.5c0,2.7,0.3,4.8,0.7,6.1
			c0.4,1.3,1.2,2.4,2.3,3.2c0.7,0.5,1.8,0.8,3.1,0.8c2.1,0,3.7-0.8,4.7-2.4c1-1.6,1.5-4.3,1.5-8V1171.6z"/>
		<path d="M1991.5,1223.3h-21.7l-3,10.2h-19.5l23.3-61.9h20.9l23.3,61.9h-20L1991.5,1223.3z M1987.5,1209.9l-6.8-22.2l-6.8,22.2
			H1987.5z"/>
		<path d="M2020.8,1171.6h17.9l23.3,34.2v-34.2h18v61.9h-18l-23.2-34v34h-18V1171.6z"/>
	</g>
	<g>
		<path d="M1280,1333.7v-38.5h25.9v4.5h-20.9v11.9h18v4.5h-18v17.5H1280z"/>
		<path d="M1337.8,1295.3h5.1v22.2c0,3.9-0.4,6.9-1.3,9.2c-0.9,2.3-2.5,4.1-4.7,5.5c-2.3,1.4-5.3,2.1-9,2.1c-3.6,0-6.6-0.6-8.8-1.9
			c-2.3-1.2-3.9-3-4.9-5.4c-1-2.4-1.5-5.6-1.5-9.6v-22.2h5.1v22.2c0,3.3,0.3,5.8,0.9,7.4c0.6,1.6,1.7,2.8,3.2,3.7
			c1.5,0.9,3.4,1.3,5.5,1.3c3.7,0,6.4-0.8,8-2.5c1.6-1.7,2.4-5,2.4-9.8V1295.3z"/>
		<path d="M1351.1,1333.7v-38.5h5.1v33.9h18.9v4.5H1351.1z"/>
		<path d="M1381,1333.7v-38.5h5.1v33.9h18.9v4.5H1381z"/>
		<path d="M1408.7,1322.2v-4.7h14.5v4.7H1408.7z"/>
		<path d="M1427.3,1321.4l4.8-0.4c0.2,1.9,0.8,3.5,1.6,4.7c0.8,1.2,2.1,2.2,3.9,3c1.7,0.8,3.7,1.1,5.9,1.1c1.9,0,3.7-0.3,5.1-0.9
			c1.5-0.6,2.6-1.4,3.3-2.4c0.7-1,1.1-2.1,1.1-3.3c0-1.2-0.4-2.3-1-3.2c-0.7-0.9-1.9-1.7-3.5-2.3c-1-0.4-3.3-1-6.8-1.9
			c-3.5-0.8-6-1.6-7.4-2.4c-1.8-1-3.2-2.2-4.1-3.6c-0.9-1.4-1.4-3-1.4-4.8c0-1.9,0.6-3.8,1.7-5.4c1.1-1.7,2.7-3,4.8-3.8
			c2.1-0.9,4.5-1.3,7.1-1.3c2.8,0,5.4,0.5,7.5,1.4c2.2,0.9,3.9,2.3,5,4.1c1.2,1.8,1.8,3.8,1.9,6.1l-4.9,0.4
			c-0.3-2.4-1.2-4.3-2.7-5.5c-1.5-1.2-3.7-1.9-6.7-1.9c-3.1,0-5.3,0.6-6.7,1.7c-1.4,1.1-2.1,2.5-2.1,4.1c0,1.4,0.5,2.5,1.5,3.4
			c1,0.9,3.5,1.8,7.7,2.7c4.1,0.9,7,1.8,8.5,2.5c2.2,1,3.9,2.3,5,3.9c1.1,1.6,1.6,3.4,1.6,5.5c0,2-0.6,4-1.8,5.8
			c-1.2,1.8-2.9,3.2-5.1,4.2c-2.2,1-4.7,1.5-7.4,1.5c-3.5,0-6.4-0.5-8.7-1.5c-2.4-1-4.2-2.5-5.5-4.6
			C1428.1,1326.3,1427.3,1324,1427.3,1321.4z"/>
		<path d="M1474.6,1333.7v-33.9H1462v-4.5h30.5v4.5h-12.7v33.9H1474.6z"/>
		<path d="M1489.5,1333.7l14.8-38.5h5.5l15.7,38.5h-5.8l-4.5-11.6h-16.1l-4.2,11.6H1489.5z M1500.5,1317.9h13l-4-10.7
			c-1.2-3.2-2.1-5.9-2.7-8c-0.5,2.5-1.2,4.9-2.1,7.3L1500.5,1317.9z"/>
		<path d="M1557,1320.3l5.1,1.3c-1.1,4.2-3,7.4-5.8,9.6c-2.8,2.2-6.2,3.3-10.2,3.3c-4.1,0-7.5-0.8-10.1-2.5
			c-2.6-1.7-4.6-4.1-5.9-7.3c-1.4-3.2-2-6.6-2-10.3c0-4,0.8-7.5,2.3-10.5s3.7-5.2,6.5-6.8s5.9-2.3,9.3-2.3c3.8,0,7.1,1,9.7,2.9
			c2.6,2,4.5,4.7,5.5,8.3l-5,1.2c-0.9-2.8-2.2-4.8-3.9-6.1c-1.7-1.3-3.8-1.9-6.4-1.9c-3,0-5.4,0.7-7.4,2.1c-2,1.4-3.4,3.3-4.2,5.7
			c-0.8,2.4-1.2,4.8-1.2,7.4c0,3.3,0.5,6.1,1.4,8.6c1,2.4,2.4,4.3,4.4,5.5c2,1.2,4.2,1.8,6.5,1.8c2.9,0,5.3-0.8,7.2-2.5
			C1554.9,1325.9,1556.3,1323.5,1557,1320.3z"/>
		<path d="M1568.1,1333.7v-38.5h5.1v19.1l19.1-19.1h6.9l-16.1,15.6l16.8,22.9h-6.7l-13.7-19.5l-6.3,6.1v13.3H1568.1z"/>
		<path d="M1625.8,1333.7l-10.2-38.5h5.2l5.9,25.2c0.6,2.6,1.2,5.3,1.6,7.9c1-4.1,1.6-6.5,1.7-7.1l7.3-26h6.1l5.5,19.5
			c1.4,4.8,2.4,9.4,3,13.6c0.5-2.4,1.1-5.2,1.9-8.4l6-24.7h5.1l-10.5,38.5h-4.9l-8.1-29.3c-0.7-2.4-1.1-4-1.2-4.5
			c-0.4,1.8-0.8,3.3-1.1,4.5l-8.2,29.3H1625.8z"/>
		<path d="M1669.9,1333.7v-38.5h27.8v4.5H1675v11.8h21.3v4.5H1675v13.1h23.6v4.5H1669.9z"/>
		<path d="M1705.4,1333.7v-38.5h14.4c2.9,0,5.3,0.4,7.1,1.2c1.8,0.8,3.2,2,4.2,3.6c1,1.6,1.5,3.3,1.5,5.1c0,1.6-0.4,3.2-1.3,4.6
			c-0.9,1.5-2.2,2.6-4,3.5c2.3,0.7,4.1,1.8,5.4,3.5c1.2,1.6,1.9,3.6,1.9,5.8c0,1.8-0.4,3.5-1.1,5c-0.8,1.5-1.7,2.7-2.8,3.6
			c-1.1,0.8-2.5,1.5-4.2,1.9c-1.7,0.4-3.8,0.6-6.2,0.6H1705.4z M1710.5,1311.4h8.3c2.3,0,3.9-0.1,4.9-0.4c1.3-0.4,2.3-1,2.9-1.9
			c0.7-0.9,1-2,1-3.4c0-1.3-0.3-2.4-0.9-3.4c-0.6-1-1.5-1.6-2.6-2c-1.1-0.4-3.1-0.5-5.8-0.5h-7.7V1311.4z M1710.5,1329.2h9.6
			c1.6,0,2.8-0.1,3.5-0.2c1.2-0.2,2.2-0.6,2.9-1c0.8-0.5,1.4-1.2,1.9-2.1c0.5-0.9,0.8-2,0.8-3.2c0-1.4-0.4-2.7-1.1-3.7
			c-0.7-1.1-1.8-1.8-3.1-2.2c-1.3-0.4-3.2-0.6-5.6-0.6h-8.9V1329.2z"/>
		<path d="M1756.4,1333.7v-38.5h13.2c3,0,5.3,0.2,6.8,0.6c2.2,0.5,4.1,1.4,5.6,2.8c2,1.7,3.5,3.9,4.6,6.6c1,2.7,1.5,5.7,1.5,9.1
			c0,2.9-0.3,5.5-1,7.8c-0.7,2.3-1.6,4.1-2.6,5.6c-1.1,1.5-2.2,2.6-3.5,3.5s-2.8,1.5-4.6,1.9c-1.8,0.4-3.9,0.7-6.2,0.7H1756.4z
			 M1761.5,1329.2h8.2c2.5,0,4.5-0.2,6-0.7c1.4-0.5,2.6-1.1,3.4-2c1.2-1.2,2.1-2.8,2.8-4.9c0.7-2,1-4.5,1-7.4c0-4-0.7-7.1-2-9.3
			c-1.3-2.2-2.9-3.6-4.8-4.3c-1.4-0.5-3.6-0.8-6.6-0.8h-8.1V1329.2z"/>
		<path d="M1795.3,1333.7v-38.5h27.8v4.5h-22.7v11.8h21.3v4.5h-21.3v13.1h23.6v4.5H1795.3z"/>
		<path d="M1842,1333.7l-14.9-38.5h5.5l10,27.9c0.8,2.2,1.5,4.3,2,6.3c0.6-2.1,1.3-4.2,2.1-6.3l10.4-27.9h5.2l-15.1,38.5H1842z"/>
		<path d="M1867,1333.7v-38.5h27.8v4.5H1872v11.8h21.3v4.5H1872v13.1h23.6v4.5H1867z"/>
		<path d="M1902.5,1333.7v-38.5h5.1v33.9h18.9v4.5H1902.5z"/>
		<path d="M1931,1315c0-6.4,1.7-11.4,5.1-15c3.4-3.6,7.9-5.4,13.3-5.4c3.5,0,6.8,0.8,9.6,2.5c2.9,1.7,5,4.1,6.5,7.1
			c1.5,3,2.2,6.5,2.2,10.3c0,3.9-0.8,7.4-2.4,10.5c-1.6,3.1-3.8,5.4-6.7,7c-2.9,1.6-6,2.4-9.3,2.4c-3.6,0-6.9-0.9-9.7-2.6
			c-2.9-1.7-5-4.1-6.5-7.2S1931,1318.4,1931,1315z M1936.3,1315.1c0,4.6,1.2,8.3,3.7,11c2.5,2.7,5.6,4,9.4,4c3.8,0,7-1.3,9.5-4
			c2.5-2.7,3.7-6.5,3.7-11.5c0-3.1-0.5-5.9-1.6-8.2c-1.1-2.3-2.6-4.1-4.6-5.4c-2-1.3-4.3-1.9-6.9-1.9c-3.6,0-6.7,1.2-9.3,3.7
			C1937.6,1305.2,1936.3,1309.3,1936.3,1315.1z"/>
		<path d="M1974.4,1333.7v-38.5h14.5c2.6,0,4.5,0.1,5.9,0.4c1.9,0.3,3.5,0.9,4.7,1.8c1.3,0.9,2.3,2.1,3.1,3.7
			c0.8,1.6,1.2,3.3,1.2,5.2c0,3.3-1,6-3.1,8.3c-2.1,2.3-5.8,3.4-11.3,3.4h-9.9v15.6H1974.4z M1979.4,1313.6h9.9c3.3,0,5.6-0.6,7-1.8
			c1.4-1.2,2.1-2.9,2.1-5.2c0-1.6-0.4-3-1.2-4.1c-0.8-1.1-1.9-1.9-3.2-2.3c-0.9-0.2-2.4-0.3-4.7-0.3h-9.8V1313.6z"/>
		<path d="M2010.3,1333.7v-38.5h27.8v4.5h-22.7v11.8h21.3v4.5h-21.3v13.1h23.6v4.5H2010.3z"/>
		<path d="M2046.1,1333.7v-38.5h17.1c3.4,0,6,0.3,7.8,1c1.8,0.7,3.2,1.9,4.3,3.7c1.1,1.7,1.6,3.7,1.6,5.8c0,2.7-0.9,5-2.6,6.9
			c-1.8,1.9-4.5,3.1-8.2,3.6c1.3,0.6,2.4,1.3,3.1,1.9c1.5,1.4,2.9,3.1,4.2,5.1l6.7,10.5h-6.4l-5.1-8c-1.5-2.3-2.7-4.1-3.7-5.3
			c-1-1.2-1.8-2.1-2.6-2.6c-0.8-0.5-1.5-0.8-2.3-1c-0.6-0.1-1.5-0.2-2.8-0.2h-5.9v17.1H2046.1z M2051.2,1312.3h10.9
			c2.3,0,4.1-0.2,5.5-0.7c1.3-0.5,2.3-1.2,3-2.3s1-2.2,1-3.4c0-1.8-0.7-3.3-2-4.5c-1.3-1.2-3.4-1.8-6.3-1.8h-12.2V1312.3z"/>
	</g>
</g>
</svg>
